<mxfile host="app.diagrams.net" agent="Mozilla/5.0 (Windows NT 10.0; Win64; x64) AppleWebKit/537.36 (KHTML, like Gecko) Chrome/135.0.0.0 Safari/537.36 Edg/135.0.0.0" version="27.1.6">
  <diagram name="Page-1" id="0PInJU09BaRdVIsoLGek">
    <mxGraphModel dx="1565" dy="1891" grid="1" gridSize="10" guides="1" tooltips="1" connect="1" arrows="1" fold="1" page="1" pageScale="1" pageWidth="850" pageHeight="1100" math="0" shadow="0">
      <root>
        <mxCell id="0" />
        <mxCell id="1" parent="0" />
        <mxCell id="swQNlO9ceYq4YovFkWLA-1" value="FastAPI" style="rounded=1;whiteSpace=wrap;html=1;" parent="1" vertex="1">
          <mxGeometry x="340" y="240" width="120" height="60" as="geometry" />
        </mxCell>
        <mxCell id="OnNfr3Tfuwk-BKVqUyyl-1" value="Progress&amp;nbsp;" style="rounded=1;whiteSpace=wrap;html=1;" parent="1" vertex="1">
          <mxGeometry x="50" y="80" width="120" height="60" as="geometry" />
        </mxCell>
        <mxCell id="OnNfr3Tfuwk-BKVqUyyl-2" value="Routes" style="swimlane;fontStyle=0;childLayout=stackLayout;horizontal=1;startSize=30;horizontalStack=0;resizeParent=1;resizeParentMax=0;resizeLast=0;collapsible=1;marginBottom=0;whiteSpace=wrap;html=1;" parent="1" vertex="1">
          <mxGeometry x="40" y="360" width="140" height="120" as="geometry" />
        </mxCell>
        <mxCell id="OnNfr3Tfuwk-BKVqUyyl-3" value="login" style="text;strokeColor=none;fillColor=none;align=left;verticalAlign=middle;spacingLeft=4;spacingRight=4;overflow=hidden;points=[[0,0.5],[1,0.5]];portConstraint=eastwest;rotatable=0;whiteSpace=wrap;html=1;" parent="OnNfr3Tfuwk-BKVqUyyl-2" vertex="1">
          <mxGeometry y="30" width="140" height="30" as="geometry" />
        </mxCell>
        <mxCell id="OnNfr3Tfuwk-BKVqUyyl-4" value="logout" style="text;strokeColor=none;fillColor=none;align=left;verticalAlign=middle;spacingLeft=4;spacingRight=4;overflow=hidden;points=[[0,0.5],[1,0.5]];portConstraint=eastwest;rotatable=0;whiteSpace=wrap;html=1;" parent="OnNfr3Tfuwk-BKVqUyyl-2" vertex="1">
          <mxGeometry y="60" width="140" height="30" as="geometry" />
        </mxCell>
        <mxCell id="OnNfr3Tfuwk-BKVqUyyl-5" value="items" style="text;strokeColor=none;fillColor=none;align=left;verticalAlign=middle;spacingLeft=4;spacingRight=4;overflow=hidden;points=[[0,0.5],[1,0.5]];portConstraint=eastwest;rotatable=0;whiteSpace=wrap;html=1;" parent="OnNfr3Tfuwk-BKVqUyyl-2" vertex="1">
          <mxGeometry y="90" width="140" height="30" as="geometry" />
        </mxCell>
        <mxCell id="OnNfr3Tfuwk-BKVqUyyl-6" value="Features" style="swimlane;fontStyle=0;childLayout=stackLayout;horizontal=1;startSize=30;horizontalStack=0;resizeParent=1;resizeParentMax=0;resizeLast=0;collapsible=1;marginBottom=0;whiteSpace=wrap;html=1;" parent="1" vertex="1">
          <mxGeometry x="280" y="360" width="140" height="120" as="geometry" />
        </mxCell>
        <mxCell id="OnNfr3Tfuwk-BKVqUyyl-7" value="oauth" style="text;strokeColor=none;fillColor=none;align=left;verticalAlign=middle;spacingLeft=4;spacingRight=4;overflow=hidden;points=[[0,0.5],[1,0.5]];portConstraint=eastwest;rotatable=0;whiteSpace=wrap;html=1;" parent="OnNfr3Tfuwk-BKVqUyyl-6" vertex="1">
          <mxGeometry y="30" width="140" height="30" as="geometry" />
        </mxCell>
        <mxCell id="OnNfr3Tfuwk-BKVqUyyl-8" value="m2m" style="text;strokeColor=none;fillColor=none;align=left;verticalAlign=middle;spacingLeft=4;spacingRight=4;overflow=hidden;points=[[0,0.5],[1,0.5]];portConstraint=eastwest;rotatable=0;whiteSpace=wrap;html=1;" parent="OnNfr3Tfuwk-BKVqUyyl-6" vertex="1">
          <mxGeometry y="60" width="140" height="30" as="geometry" />
        </mxCell>
        <mxCell id="OnNfr3Tfuwk-BKVqUyyl-9" value=".env" style="text;strokeColor=none;fillColor=none;align=left;verticalAlign=middle;spacingLeft=4;spacingRight=4;overflow=hidden;points=[[0,0.5],[1,0.5]];portConstraint=eastwest;rotatable=0;whiteSpace=wrap;html=1;" parent="OnNfr3Tfuwk-BKVqUyyl-6" vertex="1">
          <mxGeometry y="90" width="140" height="30" as="geometry" />
        </mxCell>
        <mxCell id="OnNfr3Tfuwk-BKVqUyyl-10" value="&lt;div style=&quot;background-color: rgb(255, 255, 254); line-height: 18px; white-space: pre;&quot;&gt;&lt;div&gt;{&lt;/div&gt;&lt;div&gt;&amp;nbsp;&amp;nbsp;&amp;nbsp;&amp;nbsp;&lt;span style=&quot;color: #a31515;&quot;&gt;&quot;user&quot;&lt;/span&gt;:&amp;nbsp;{&lt;/div&gt;&lt;div&gt;&amp;nbsp;&amp;nbsp;&amp;nbsp;&amp;nbsp;&amp;nbsp;&amp;nbsp;&amp;nbsp;&amp;nbsp;&lt;span style=&quot;color: #a31515;&quot;&gt;&quot;iss&quot;&lt;/span&gt;:&amp;nbsp;&lt;span style=&quot;color: #0451a5;&quot;&gt;&quot;https://dev-swp17yxdc7p6unqh.us.auth0.com/&quot;&lt;/span&gt;,&lt;/div&gt;&lt;div&gt;&amp;nbsp;&amp;nbsp;&amp;nbsp;&amp;nbsp;&amp;nbsp;&amp;nbsp;&amp;nbsp;&amp;nbsp;&lt;span style=&quot;color: #a31515;&quot;&gt;&quot;sub&quot;&lt;/span&gt;:&amp;nbsp;&lt;span style=&quot;color: #0451a5;&quot;&gt;&quot;google-oauth2|100412700466377214282&quot;&lt;/span&gt;,&lt;/div&gt;&lt;div&gt;&amp;nbsp;&amp;nbsp;&amp;nbsp;&amp;nbsp;&amp;nbsp;&amp;nbsp;&amp;nbsp;&amp;nbsp;&lt;span style=&quot;color: #a31515;&quot;&gt;&quot;aud&quot;&lt;/span&gt;:&amp;nbsp;[&lt;/div&gt;&lt;div&gt;&amp;nbsp;&amp;nbsp;&amp;nbsp;&amp;nbsp;&amp;nbsp;&amp;nbsp;&amp;nbsp;&amp;nbsp;&amp;nbsp;&amp;nbsp;&amp;nbsp;&amp;nbsp;&lt;span style=&quot;color: #0451a5;&quot;&gt;&quot;https://fastapi.example.com&quot;&lt;/span&gt;,&lt;/div&gt;&lt;div&gt;&amp;nbsp;&amp;nbsp;&amp;nbsp;&amp;nbsp;&amp;nbsp;&amp;nbsp;&amp;nbsp;&amp;nbsp;&amp;nbsp;&amp;nbsp;&amp;nbsp;&amp;nbsp;&lt;span style=&quot;color: #0451a5;&quot;&gt;&quot;https://dev-swp17yxdc7p6unqh.us.auth0.com/userinfo&quot;&lt;/span&gt;&lt;/div&gt;&lt;div&gt;&amp;nbsp;&amp;nbsp;&amp;nbsp;&amp;nbsp;&amp;nbsp;&amp;nbsp;&amp;nbsp;&amp;nbsp;],&lt;/div&gt;&lt;div&gt;&amp;nbsp;&amp;nbsp;&amp;nbsp;&amp;nbsp;&amp;nbsp;&amp;nbsp;&amp;nbsp;&amp;nbsp;&lt;span style=&quot;color: #a31515;&quot;&gt;&quot;iat&quot;&lt;/span&gt;:&amp;nbsp;&lt;span style=&quot;color: #098658;&quot;&gt;1750261074&lt;/span&gt;,&lt;/div&gt;&lt;div&gt;&amp;nbsp;&amp;nbsp;&amp;nbsp;&amp;nbsp;&amp;nbsp;&amp;nbsp;&amp;nbsp;&amp;nbsp;&lt;span style=&quot;color: #a31515;&quot;&gt;&quot;exp&quot;&lt;/span&gt;:&amp;nbsp;&lt;span style=&quot;color: #098658;&quot;&gt;1750347474&lt;/span&gt;,&lt;/div&gt;&lt;div&gt;&amp;nbsp;&amp;nbsp;&amp;nbsp;&amp;nbsp;&amp;nbsp;&amp;nbsp;&amp;nbsp;&amp;nbsp;&lt;span style=&quot;color: #a31515;&quot;&gt;&quot;scope&quot;&lt;/span&gt;:&amp;nbsp;&lt;span style=&quot;color: #0451a5;&quot;&gt;&quot;openid&amp;nbsp;profile&amp;nbsp;email&quot;&lt;/span&gt;,&lt;/div&gt;&lt;div&gt;&amp;nbsp;&amp;nbsp;&amp;nbsp;&amp;nbsp;&amp;nbsp;&amp;nbsp;&amp;nbsp;&amp;nbsp;&lt;span style=&quot;color: #a31515;&quot;&gt;&quot;azp&quot;&lt;/span&gt;:&amp;nbsp;&lt;span style=&quot;color: #0451a5;&quot;&gt;&quot;WP06JJjDmYruqp51NtlEriD7P7xwGw3z&quot;&lt;/span&gt;,&lt;/div&gt;&lt;div&gt;&amp;nbsp;&amp;nbsp;&amp;nbsp;&amp;nbsp;&amp;nbsp;&amp;nbsp;&amp;nbsp;&amp;nbsp;&lt;span style=&quot;color: #a31515;&quot;&gt;&quot;permissions&quot;&lt;/span&gt;:&amp;nbsp;[]&lt;/div&gt;&lt;div&gt;&amp;nbsp;&amp;nbsp;&amp;nbsp;&amp;nbsp;},&lt;/div&gt;&lt;div&gt;&amp;nbsp;&amp;nbsp;&amp;nbsp;&amp;nbsp;&lt;span style=&quot;color: #a31515;&quot;&gt;&quot;third_party_data&quot;&lt;/span&gt;:&amp;nbsp;{&lt;/div&gt;&lt;div&gt;&amp;nbsp;&amp;nbsp;&amp;nbsp;&amp;nbsp;&amp;nbsp;&amp;nbsp;&amp;nbsp;&amp;nbsp;&lt;span style=&quot;color: #a31515;&quot;&gt;&quot;data&quot;&lt;/span&gt;:&amp;nbsp;&lt;span style=&quot;color: #0451a5;&quot;&gt;&quot;Synced&amp;nbsp;successfully&amp;nbsp;with&amp;nbsp;third-party!&quot;&lt;/span&gt;&lt;/div&gt;&lt;div&gt;&amp;nbsp;&amp;nbsp;&amp;nbsp;&amp;nbsp;}&lt;/div&gt;&lt;/div&gt;" style="text;html=1;align=center;verticalAlign=middle;whiteSpace=wrap;rounded=0;" parent="1" vertex="1">
          <mxGeometry x="360" y="40" width="60" height="30" as="geometry" />
        </mxCell>
        <mxCell id="5RDQNVKXc3C1J05CxhvC-2" value="&lt;ul&gt;&lt;li&gt;dependencies&lt;/li&gt;&lt;li&gt;.env&lt;/li&gt;&lt;li&gt;uvicorn-&amp;nbsp;&lt;span style=&quot;background-color: rgb(255, 255, 255); color: rgb(71, 71, 71); font-family: Arial, sans-serif; font-size: 14px; text-align: start;&quot;&gt;An ASGI web server, for Python&lt;/span&gt;&lt;/li&gt;&lt;li&gt;&lt;span style=&quot;background-color: rgb(255, 255, 255); color: rgb(71, 71, 71); font-family: Arial, sans-serif; font-size: 14px; text-align: start;&quot;&gt;Set Up Auth0-&amp;nbsp;Callback URLs,&amp;nbsp;&lt;/span&gt;&lt;strong style=&quot;background-color: transparent; color: light-dark(rgb(0, 0, 0), rgb(255, 255, 255));&quot; data-end=&quot;1365&quot; data-start=&quot;1342&quot;&gt;Logout URLs&lt;/strong&gt;&lt;span style=&quot;background-color: transparent; color: light-dark(rgb(0, 0, 0), rgb(255, 255, 255));&quot;&gt;:,&amp;nbsp;&lt;/span&gt;&lt;span style=&quot;background-color: transparent; color: light-dark(rgb(0, 0, 0), rgb(255, 255, 255));&quot;&gt;Allowed Web Origins&lt;/span&gt;&lt;/li&gt;&lt;/ul&gt;" style="text;html=1;align=center;verticalAlign=middle;whiteSpace=wrap;rounded=0;" parent="1" vertex="1">
          <mxGeometry x="15" y="230" width="190" height="30" as="geometry" />
        </mxCell>
        <mxCell id="5RDQNVKXc3C1J05CxhvC-3" value="&lt;ul&gt;&lt;li&gt;urls -&amp;nbsp; Testing Routes&lt;/li&gt;&lt;li&gt;http://127.0.0.1:8000&lt;/li&gt;&lt;li&gt;http://127.0.0.1:8000/login&lt;/li&gt;&lt;li&gt;&lt;code data-end=&quot;1534&quot; data-start=&quot;1514&quot;&gt;/callback?code=...&lt;/code&gt; → Called by Auth0 after login&lt;code style=&quot;background-color: transparent; color: light-dark(rgb(0, 0, 0), rgb(255, 255, 255));&quot; data-end=&quot;1697&quot; data-start=&quot;1679&quot;&gt;/items/{item_id}&lt;/code&gt;&lt;span style=&quot;background-color: transparent; color: light-dark(rgb(0, 0, 0), rgb(255, 255, 255));&quot;&gt; → Fetches item if authorized&lt;/span&gt;&lt;/li&gt;&lt;li&gt;&lt;code style=&quot;background-color: transparent; color: light-dark(rgb(0, 0, 0), rgb(255, 255, 255));&quot; data-end=&quot;1738&quot; data-start=&quot;1729&quot;&gt;logout&lt;/code&gt;&lt;span style=&quot;background-color: transparent; color: light-dark(rgb(0, 0, 0), rgb(255, 255, 255));&quot;&gt; → Logs out via Auth0&lt;/span&gt;&lt;/li&gt;&lt;li&gt;&lt;code data-end=&quot;1589&quot; data-start=&quot;1567&quot;&gt;/connect-third-party&lt;/code&gt; → A protected route that returns user info and a sample third-party connection message&lt;/li&gt;&lt;li&gt;&lt;strong data-end=&quot;979&quot; data-start=&quot;960&quot;&gt;temporary route&lt;/strong&gt; to your app for debugging: /items&lt;/li&gt;&lt;li&gt;Add a test Item with your current Auth0 user ID /add-item&lt;/li&gt;&lt;/ul&gt;" style="text;html=1;align=center;verticalAlign=middle;whiteSpace=wrap;rounded=0;" parent="1" vertex="1">
          <mxGeometry x="550" y="40" width="250" height="40" as="geometry" />
        </mxCell>
        <mxCell id="5RDQNVKXc3C1J05CxhvC-4" value="owner_id ,&amp;nbsp;user_id&amp;nbsp;&lt;div&gt;&lt;br&gt;&lt;/div&gt;&lt;div&gt;&lt;code data-end=&quot;326&quot; data-start=&quot;317&quot;&gt;user_id&lt;/code&gt; (from your token&#39;s &lt;code data-end=&quot;351&quot; data-start=&quot;346&quot;&gt;sub&lt;/code&gt; claim)&amp;nbsp;&lt;span style=&quot;background-color: transparent; color: light-dark(rgb(0, 0, 0), rgb(255, 255, 255));&quot;&gt;must match the &lt;/span&gt;&lt;code style=&quot;background-color: transparent; color: light-dark(rgb(0, 0, 0), rgb(255, 255, 255));&quot; data-end=&quot;384&quot; data-start=&quot;374&quot;&gt;owner_id&lt;/code&gt;&lt;span style=&quot;background-color: transparent; color: light-dark(rgb(0, 0, 0), rgb(255, 255, 255));&quot;&gt; of the &lt;/span&gt;&lt;code style=&quot;background-color: transparent; color: light-dark(rgb(0, 0, 0), rgb(255, 255, 255));&quot; data-end=&quot;398&quot; data-start=&quot;392&quot;&gt;Item&lt;/code&gt;&lt;span style=&quot;background-color: transparent; color: light-dark(rgb(0, 0, 0), rgb(255, 255, 255));&quot;&gt; in the database. If they don’t match, access is denied.&lt;/span&gt;&lt;/div&gt;" style="text;html=1;align=center;verticalAlign=middle;whiteSpace=wrap;rounded=0;" parent="1" vertex="1">
          <mxGeometry x="580" y="230" width="200" height="30" as="geometry" />
        </mxCell>
        <mxCell id="5RDQNVKXc3C1J05CxhvC-5" value="m2m&lt;div&gt;allow access from a &lt;strong data-end=&quot;178&quot; data-start=&quot;138&quot;&gt;Machine-to-Machine (M2M) application&lt;/strong&gt; instead of a human user.&lt;/div&gt;&lt;div&gt;&amp;nbsp;treat &lt;code data-end=&quot;1234&quot; data-start=&quot;1223&quot;&gt;client_id&lt;/code&gt; or &lt;code data-end=&quot;1243&quot; data-start=&quot;1238&quot;&gt;aud&lt;/code&gt; as &lt;code data-end=&quot;1258&quot; data-start=&quot;1247&quot;&gt;&quot;m2m-app&quot;&lt;/code&gt;&lt;/div&gt;&lt;div&gt;&lt;code data-end=&quot;1258&quot; data-start=&quot;1247&quot;&gt;Instead of hardcoding &lt;code data-end=&quot;1380&quot; data-start=&quot;1369&quot;&gt;&quot;m2m-app&quot;&lt;/code&gt;, you can check if the token is from an M2M app by inspecting the &lt;code data-end=&quot;1451&quot; data-start=&quot;1446&quot;&gt;azp&lt;/code&gt; or &lt;code data-end=&quot;1466&quot; data-start=&quot;1455&quot;&gt;client_id&lt;/code&gt; claim&lt;/code&gt;&lt;/div&gt;&lt;div&gt;&lt;code data-end=&quot;1258&quot; data-start=&quot;1247&quot;&gt;&lt;div&gt;if item.owner_id != user_id and payload.get(&quot;azp&quot;) != M2M_CLIENT_ID:&lt;/div&gt;&lt;div&gt;&amp;nbsp; &amp;nbsp; raise HTTPException(status_code=403, detail=&quot;Access denied&quot;)&lt;/div&gt;&lt;div&gt;&lt;strong data-end=&quot;231&quot; data-start=&quot;188&quot;&gt;M2M apps use &lt;code data-end=&quot;223&quot; data-start=&quot;203&quot;&gt;client_credentials&lt;/code&gt; grant&lt;/strong&gt; to programmatically obtain tokens from Auth0 and call your APIs with them.&lt;/div&gt;&lt;div&gt;&lt;span style=&quot;color: rgb(29, 28, 29); font-family: Slack-Lato, Slack-Fractions, appleLogo, sans-serif; font-size: 15px; font-variant-ligatures: common-ligatures; text-align: left; background-color: rgb(248, 248, 248);&quot;&gt;&amp;nbsp;M2M apps are for server-to-server communication where one service needs to talk to another API&amp;nbsp;&lt;/span&gt;&lt;/div&gt;&lt;/code&gt;&lt;/div&gt;" style="text;html=1;align=center;verticalAlign=middle;whiteSpace=wrap;rounded=0;" parent="1" vertex="1">
          <mxGeometry x="510" y="390" width="290" height="30" as="geometry" />
        </mxCell>
        <UserObject label="{&#xa;  &quot;iss&quot;: &quot;https://dev-swp17yxdc7p6unqh.us.auth0.com/&quot;,&#xa;  &quot;sub&quot;: &quot;B3ON51o8uuibtualLNIqogcdEq9qBCyF@clients&quot;,&#xa;  &quot;aud&quot;: &quot;https://fastapi.example.com&quot;,&#xa;  &quot;iat&quot;: 1750318447,&#xa;  &quot;exp&quot;: 1750404847,&#xa;  &quot;gty&quot;: &quot;client-credentials&quot;,&#xa;  &quot;azp&quot;: &quot;B3ON51o8uuibtualLNIqogcdEq9qBCyF&quot;,&#xa;  &quot;permissions&quot;: []&#xa;}" link="{&#xa;  &quot;iss&quot;: &quot;https://dev-swp17yxdc7p6unqh.us.auth0.com/&quot;,&#xa;  &quot;sub&quot;: &quot;B3ON51o8uuibtualLNIqogcdEq9qBCyF@clients&quot;,&#xa;  &quot;aud&quot;: &quot;https://fastapi.example.com&quot;,&#xa;  &quot;iat&quot;: 1750318447,&#xa;  &quot;exp&quot;: 1750404847,&#xa;  &quot;gty&quot;: &quot;client-credentials&quot;,&#xa;  &quot;azp&quot;: &quot;B3ON51o8uuibtualLNIqogcdEq9qBCyF&quot;,&#xa;  &quot;permissions&quot;: []&#xa;}" id="bUdlqqotUCH89HQharEP-1">
          <mxCell style="text;whiteSpace=wrap;" vertex="1" parent="1">
            <mxGeometry x="20" y="-260" width="340" height="170" as="geometry" />
          </mxCell>
        </UserObject>
        <mxCell id="bUdlqqotUCH89HQharEP-2" value="&lt;span style=&quot;color: rgb(29, 28, 29); font-family: Slack-Lato, Slack-Fractions, appleLogo, sans-serif; font-size: 15px; font-style: normal; font-variant-ligatures: common-ligatures; font-variant-caps: normal; font-weight: 400; letter-spacing: normal; orphans: 2; text-align: left; text-indent: 0px; text-transform: none; widows: 2; word-spacing: 0px; -webkit-text-stroke-width: 0px; white-space: normal; background-color: rgb(255, 255, 255); text-decoration-thickness: initial; text-decoration-style: initial; text-decoration-color: initial; float: none; display: inline !important;&quot;&gt;decoded m2m app token&amp;nbsp;&amp;nbsp;&lt;/span&gt;" style="text;whiteSpace=wrap;html=1;" vertex="1" parent="1">
          <mxGeometry x="30" y="-300" width="360" height="40" as="geometry" />
        </mxCell>
        <mxCell id="bUdlqqotUCH89HQharEP-3" value="&lt;div&gt;Auth0&lt;/div&gt;m2m (No human interaction)&lt;div&gt;normal user&lt;/div&gt;" style="text;html=1;align=center;verticalAlign=middle;whiteSpace=wrap;rounded=0;" vertex="1" parent="1">
          <mxGeometry x="230" y="250" width="80" height="30" as="geometry" />
        </mxCell>
        <mxCell id="bUdlqqotUCH89HQharEP-4" value="&lt;div style=&quot;color: #cccccc;background-color: #1f1f1f;font-family: Consolas, &#39;Courier New&#39;, monospace;font-weight: normal;font-size: 14px;line-height: 19px;white-space: pre;&quot;&gt;&lt;div&gt;&lt;span style=&quot;color: #cccccc;&quot;&gt;AUTH0_CLIENT_ID -&amp;gt; Application regular app&lt;/span&gt;&lt;/div&gt;&lt;div&gt;&lt;span style=&quot;color: #cccccc;&quot;&gt;APIs domain is similar to base url Application&lt;/span&gt;&lt;/div&gt;&lt;div&gt;&lt;span style=&quot;color: #cccccc;&quot;&gt;AUTH0_CLIENT_SECRET -&amp;gt; Application regular app&lt;/span&gt;&lt;/div&gt;&lt;div&gt;&lt;span style=&quot;color: #cccccc;&quot;&gt;AUTH0_AUDIENCE -&amp;gt; APIs identifier Custom API&lt;/span&gt;&lt;/div&gt;&lt;div&gt;&lt;span style=&quot;color: #cccccc;&quot;&gt;AUTH0_DOMAIN -&amp;gt; APIs base url&lt;/span&gt;&lt;/div&gt;&lt;/div&gt;" style="text;whiteSpace=wrap;html=1;" vertex="1" parent="1">
          <mxGeometry x="520" y="-260" width="390" height="120" as="geometry" />
        </mxCell>
        <UserObject label="iss&#xa;https://dev-swp17yxdc7p6unqh.us.auth0.com/&#xa;&#xa;&#xa;The issuer of the JWT. Learn more&#xa;&#xa;&#xa;sub&#xa;B3ON51o8uuibtualLNIqogcdEq9qBCyF@clients&#xa;&#xa;&#xa;The subject of the JWT (the user). Learn more&#xa;&#xa;&#xa;aud&#xa;https://fastapi.example.com&#xa;&#xa;&#xa;The recipients that the JWT is intended for. Learn more&#xa;&#xa;&#xa;iat&#xa;1750319733 (Thu Jun 19 2025 13:25:33 GMT+0530 (India Standard Time))&#xa;&#xa;&#xa;The time at which the JWT was issued. Learn more&#xa;&#xa;&#xa;This value must be a NumericDate type, representing seconds.&#xa;&#xa;&#xa;exp&#xa;1750406133 (Fri Jun 20 2025 13:25:33 GMT+0530 (India Standard Time))&#xa;&#xa;&#xa;The expiration time on or after which the JWT MUST NOT be accepted for processing. Learn more&#xa;&#xa;&#xa;This value must be a NumericDate type, representing seconds.&#xa;&#xa;&#xa;gty&#xa;client-credentials&#xa;&#xa;&#xa;azp&#xa;B3ON51o8uuibtualLNIqogcdEq9qBCyF&#xa;&#xa;&#xa;The authorized party to which the ID Token was issued. Learn more" link="iss&#xa;https://dev-swp17yxdc7p6unqh.us.auth0.com/&#xa;&#xa;&#xa;The issuer of the JWT. Learn more&#xa;&#xa;&#xa;sub&#xa;B3ON51o8uuibtualLNIqogcdEq9qBCyF@clients&#xa;&#xa;&#xa;The subject of the JWT (the user). Learn more&#xa;&#xa;&#xa;aud&#xa;https://fastapi.example.com&#xa;&#xa;&#xa;The recipients that the JWT is intended for. Learn more&#xa;&#xa;&#xa;iat&#xa;1750319733 (Thu Jun 19 2025 13:25:33 GMT+0530 (India Standard Time))&#xa;&#xa;&#xa;The time at which the JWT was issued. Learn more&#xa;&#xa;&#xa;This value must be a NumericDate type, representing seconds.&#xa;&#xa;&#xa;exp&#xa;1750406133 (Fri Jun 20 2025 13:25:33 GMT+0530 (India Standard Time))&#xa;&#xa;&#xa;The expiration time on or after which the JWT MUST NOT be accepted for processing. Learn more&#xa;&#xa;&#xa;This value must be a NumericDate type, representing seconds.&#xa;&#xa;&#xa;gty&#xa;client-credentials&#xa;&#xa;&#xa;azp&#xa;B3ON51o8uuibtualLNIqogcdEq9qBCyF&#xa;&#xa;&#xa;The authorized party to which the ID Token was issued. Learn more" id="bUdlqqotUCH89HQharEP-5">
          <mxCell style="text;whiteSpace=wrap;" vertex="1" parent="1">
            <mxGeometry x="1040" y="-210" width="560" height="760" as="geometry" />
          </mxCell>
        </UserObject>
      </root>
    </mxGraphModel>
  </diagram>
</mxfile>
